<svg t="1693749770374" class="icon" viewBox="0 0 1024 1024" version="1.1" xmlns="http://www.w3.org/2000/svg" p-id="1304" width="16" height="16"><path d="M608.896 365.013333A21.333333 21.333333 0 0 0 597.333333 384v426.666667a21.333333 21.333333 0 0 0 33.728 17.365333l298.666667-213.333333a21.333333 21.333333 0 0 0 0-34.730667l-298.666667-213.333333a21.333333 21.333333 0 0 0-22.165333-1.6zM880.64 597.333333L640 769.216V425.450667L880.64 597.333333z" fill="#000000" p-id="1305"></path><path d="M277.333333 277.333333a149.333333 149.333333 0 1 0 0 298.666667h362.666667v42.666667H277.333333a192 192 0 0 1-192-192v-21.333334h1.173334c10.602667-96 91.989333-170.666667 190.826666-170.666666h661.333334v42.666666H277.333333z" fill="#000000" p-id="1306"></path></svg>